<?xml version="1.0" ?>
<!DOCTYPE svg  PUBLIC '-//W3C//DTD SVG 1.1//EN'  'http://www.w3.org/Graphics/SVG/1.1/DTD/svg11.dtd'>
<!-- Uploaded to: SVG Repo, www.svgrepo.com, Generator: SVG Repo Mixer Tools -->
<svg fill="#000000" width="800px" height="800px" viewBox="0 0 512 512" version="1.1" xml:space="preserve" xmlns="http://www.w3.org/2000/svg" xmlns:xlink="http://www.w3.org/1999/xlink">
<g id="_x31_87_x2C__certificate_x2C__certification_x2C__App_x2C__application_x2C__aproval">
<g>
<path d="M363.393,372.136H112.79v50.975c0,4.159,1.729,7.932,4.443,10.681    c2.75,2.75,6.521,4.441,10.681,4.441H348.27c4.161,0,7.932-1.691,10.682-4.441c2.75-2.749,4.441-6.521,4.441-10.681V372.136z     M245.159,397.975c-1.797-1.797-4.301-2.89-7.051-2.89c-2.785,0-5.287,1.093-7.085,2.927c-1.797,1.762-2.925,4.265-2.925,7.049    c0,2.75,1.128,5.253,2.925,7.051c1.798,1.798,4.301,2.926,7.085,2.926c2.645,0,5.077-1.021,6.875-2.714l0.175-0.212    c1.799-1.798,2.927-4.301,2.927-7.051C248.086,402.276,246.958,399.773,245.159,397.975z M238.108,386.413    c5.112,0,9.765,2.079,13.15,5.464c3.383,3.385,5.499,8.037,5.499,13.184s-2.116,9.801-5.464,13.185l-0.318,0.281    c-3.35,3.209-7.896,5.183-12.868,5.183c-5.146,0-9.835-2.08-13.218-5.464c-3.35-3.384-5.429-8.038-5.429-13.185    s2.079-9.799,5.429-13.184C228.273,388.492,232.962,386.413,238.108,386.413z M111.521,221.225h0.035h0.105l0.072-0.036h0.035    h0.105h0.141h0.247l0.283-0.035h0.07h0.21l1.128-0.105l0.212-0.036h0.246l0,0l0.282-0.035l0.141-0.035    c8.566-0.881,16.568-3.561,23.689-7.649l0.072-0.035l0.211-0.14l0.07-0.037l0.177-0.07l0.211-0.141l0,0l0.247-0.141l0.105-0.07    l0.105-0.07l0.247-0.142h0.035l0.177-0.142l0.176-0.105l0.035-0.035l0,0h0.035l0.035-0.035l0.318-0.212l0.07-0.035l0.07-0.034    l0.107-0.07l0.599-0.389l0.07-0.035l0.388-0.282l0.142-0.07l0.246-0.177l0.353-0.246l0.035-0.035l0.388-0.282l0.177-0.105    l0.211-0.142l0.388-0.282l0,0l0.388-0.281l0.177-0.142l0.21-0.141l0.353-0.282l0.035-0.035l0.565-0.423l0.14-0.141l0.388-0.282    l0.035-0.036l0.318-0.246l0.247-0.212l0.141-0.104l0.353-0.283l0.07-0.07l0.283-0.246l0.246-0.248l0.107-0.07l0.704-0.634    l0.283-0.247l0.07-0.07l0.353-0.316l0.105-0.107l0.248-0.211l0.283-0.281l0.035-0.036l0.353-0.317l0.14-0.141l0.528-0.493v-0.036    l0.318-0.316l0.177-0.176l0.176-0.178l0.317-0.352l0,0l0.318-0.317l0.175-0.212l0.142-0.141l0.316-0.353l0.035-0.035l0.283-0.317    l0.212-0.212l0.105-0.142l1.233-1.409l0.07-0.105l0.212-0.282l0.246-0.282l0.072-0.069l0.281-0.389l0.107-0.105l0.175-0.247    l0.248-0.317l0.035-0.07l0.317-0.353l0.105-0.177l0.175-0.211l0.248-0.354l0.035-0.035l0.247-0.387l0.141-0.177l0.14-0.212    l0.283-0.387l0,0l0.248-0.389l0.281-0.388l0.247-0.388l0.035-0.035l0.248-0.353l0.141-0.247l0.105-0.141l0.248-0.424l0.035-0.069    l0.212-0.317l0.175-0.282l0.07-0.142l0.247-0.387l0.07-0.105l0.353-0.636l0.07-0.069l0.635-1.199l0.035-0.035l0.21-0.423    l0.107-0.177l0.105-0.246l0.21-0.388l0.035-0.036l0.177-0.387l0.141-0.248l0.07-0.176l0.212-0.423l0.035-0.07l0.176-0.317    l0.142-0.354l0.035-0.07l0.21-0.422l0.072-0.177l0.105-0.247l0.388-0.881l0.07-0.212l0.105-0.212l0.177-0.422v-0.035l0.176-0.389    l0.105-0.316l0.072-0.105l0.175-0.459l0.035-0.105l0.105-0.318l0.142-0.387l0.035-0.07l0.14-0.424l0.07-0.176l0.107-0.281    l0.14-0.424l0,0l0.141-0.459l0.107-0.246l0.035-0.211l0.141-0.424l0.035-0.07l0.107-0.388l0.105-0.317l0.035-0.141l0.141-0.458    l0.035-0.142l0.107-0.317l0.105-0.388v-0.07l0.105-0.458l0.07-0.212l0.07-0.247l0.107-0.458l0,0l0.105-0.458l0.07-0.282    l0.035-0.177l0.107-0.458l0.035-0.105l0.07-0.352l0.07-0.389l0.035-0.105l0.07-0.459l0.035-0.141l0.072-0.316l0.07-0.459v-0.035    l0.105-0.459l0.035-0.246l0.035-0.211l0.07-0.494v-0.035l0.072-0.423l0.035-0.317l0.035-0.177l0.07-0.458v-0.141l0.035-0.354    l0.07-0.388v-0.104l0.07-0.459v-0.211l0.035-0.283l0.035-0.457v-0.035l0.037-0.494l0.035-0.246v-0.212l0.035-0.494v-0.07    l0.035-0.423l0.035-0.353v-0.142v-0.492l0.035-0.142v-0.353v-0.424l0.035-0.07v-0.493v-0.212v-0.281v-0.494    c0-16.674-6.768-31.761-17.662-42.689c-10.927-10.928-26.049-17.695-42.725-17.695c-16.568,0-31.585,6.697-42.477,17.484    l-0.212,0.211c-10.927,10.929-17.695,26.016-17.695,42.689c0,16.675,6.768,31.762,17.695,42.689    c3.137,3.138,6.627,5.959,10.365,8.319l0.105,0.036l0.07,0.07l0.07,0.035l0.07,0.035l0.072,0.07    c8.037,5.006,17.307,8.179,27.285,8.954h0.035l0.281,0.035h0.248h0.212l0.07,0.035h0.281h0.248l0.175,0.036h0.107h0.281    l0.248,0.035h0.141h0.424h0.246h0.105h0.177l0.283,0.035h0.281h0.035h0.247h0.248h0.281h0.072h0.035h0.035h0.07h0.035h0.035l0,0    h0.07h0.035h0.07h0.037h0.035h0.035h0.035h0.035h0.035h0.07h0.035h0.07l0,0h0.037h0.07h0.035h0.035h0.07l0,0h0.035h0.035h0.07    h0.037h0.07h0.035v-0.035h0.035h0.07h0.035h0.035h0.07h0.037l0,0h0.07h0.035h0.105h0.035h0.142h0.035h0.07h0.035l0,0h0.07h0.035    h0.035h0.07h0.035h0.037l0,0h0.07l0.423-0.035h0.035l0,0H111.521z M147.195,296.627c-0.316,2.045-2.114,3.666-4.264,3.666    c-1.235,0-2.362-0.529-3.173-1.375l-0.037-0.035l-0.035-0.035l-26.897-26.191v90.807h250.603V41.124    c0-4.125-1.691-7.932-4.441-10.646c-2.75-2.749-6.521-4.476-10.682-4.476H127.914c-4.16,0-7.931,1.727-10.681,4.476    c-2.714,2.715-4.443,6.521-4.443,10.646v25.839h217.644c2.361,0,4.301,1.939,4.301,4.336c0,2.397-1.939,4.336-4.301,4.336H112.79    v16.357l0.107,0.035l0.704,0.035h0.177l0.634,0.07h0.247l0.563,0.07l0.283,0.035l0.53,0.035l0.351,0.035l0.423,0.07l0.459,0.036    l0.353,0.07l0.493,0.07l0.318,0.036l0.528,0.07l0.74,0.105l0.141,0.035l0.177,0.035l0.668,0.105l0.107,0.036l0.739,0.14h0.037    l0.774,0.142h0.037l0.739,0.177h0.072l0.704,0.176l0.142,0.035l0.634,0.142l0.212,0.035l0.563,0.142l0.248,0.07l0.493,0.141    l0.353,0.105l0.423,0.105l0.388,0.105l0.353,0.106l0.458,0.141l0.317,0.071l0.493,0.176l0.248,0.07l0.563,0.176l0.177,0.035    l0.633,0.212l0.107,0.035l0.704,0.247l0.035,0.035l0.74,0.247l0,0l0.741,0.281l0.07,0.036l0.635,0.246l0.141,0.035l0.6,0.247    l0.175,0.071l0.53,0.211l0.246,0.141l0.775,0.317l0.388,0.177l0.388,0.176l0.353,0.142l0.388,0.212l0.283,0.105l0.493,0.246    l0.212,0.105l0.528,0.247l0.176,0.071l0.565,0.316l0.105,0.035l0.67,0.353h0.035l0.67,0.388l0,0l1.339,0.74l0.14,0.07l0.53,0.318    l0.175,0.105l0.493,0.282l0.212,0.14l0.458,0.283l0.247,0.141l0.388,0.247l0.315,0.212l0.318,0.211l0.388,0.246l0.283,0.177    l0.423,0.282l0.212,0.141l0.458,0.318l0.175,0.104l0.528,0.388l0.072,0.071l0.598,0.423l0.035,0.035l0.6,0.458h0.035l0.634,0.494    l0.565,0.423l0.105,0.07l0.493,0.388l0.142,0.142l0.458,0.352l0.211,0.177l0.388,0.317l0.247,0.211l0.318,0.283l0.283,0.246    l0.315,0.246l0.318,0.318l0.248,0.211l0.388,0.317l0.175,0.177l0.423,0.387l0.142,0.141l0.458,0.424l0.105,0.105l0.493,0.494    l0.035,0.035l0.565,0.528c12.515,12.515,20.234,29.788,20.234,48.823v0.564v0.317l-0.035,0.247v0.563v0.105v0.459l-0.035,0.423    v0.141l-0.035,0.564v0.176v0.388l-0.035,0.494v0.07l-0.035,0.528l-0.035,0.282l-0.037,0.282l-0.035,0.564v0.035l-0.035,0.493    l-0.035,0.353l-0.035,0.211l-0.07,0.564v0.105l-0.035,0.424l-0.07,0.458v0.104l-0.072,0.529l-0.035,0.212l-0.07,0.353l-0.07,0.493    v0.036l-0.07,0.564l-0.07,0.281l-0.035,0.246l-0.107,0.529v0.07l-0.07,0.494l-0.07,0.353l-0.035,0.175l-0.105,0.529l-0.037,0.142    l-0.07,0.388l-0.105,0.424l-0.035,0.104l-0.105,0.529l-0.035,0.212l-0.107,0.316l-0.105,0.529l0,0l-0.14,0.528l-0.07,0.282    l-0.072,0.247l-0.141,0.528v0.07l-0.14,0.459l-0.107,0.353l-0.035,0.142l-0.141,0.527l-0.035,0.142l-0.142,0.388l-0.105,0.423    l-0.035,0.071l-0.176,0.527l-0.072,0.212l-0.07,0.282l-0.175,0.529l0,0l-0.177,0.493l-0.105,0.317l-0.07,0.176l-0.175,0.529    l-0.037,0.07l-0.176,0.424l-0.105,0.387l-0.07,0.105l-0.177,0.494l-0.07,0.176l-0.14,0.318l-0.177,0.457l-0.035,0.036    l-0.176,0.493l-0.107,0.246l-0.105,0.248l-0.211,0.493l-0.037,0.034l-0.176,0.459l-0.14,0.317l-0.107,0.177l-0.211,0.494    l-0.035,0.069l-0.177,0.388l-0.176,0.389l-0.07,0.104l-0.212,0.459l-0.105,0.177l-0.14,0.316l-0.495,0.952l-0.105,0.212    l-0.14,0.246l-0.248,0.459l-0.035,0.035l-0.212,0.422l-0.176,0.318l-0.317,0.6l-0.105,0.141l-0.177,0.281l-0.246,0.424l0,0    l-0.248,0.457l-0.175,0.247l-0.107,0.177l-0.246,0.459l-0.07,0.07l-0.212,0.352l-0.248,0.354l-0.035,0.07l-0.246,0.422    l-0.177,0.212l-0.105,0.212l-0.283,0.423l-0.07,0.071l-0.246,0.352l-0.212,0.317l-0.07,0.106l-0.283,0.423l-0.14,0.177    l-0.143,0.211l-0.315,0.423v0.035l-0.283,0.388l-0.212,0.281l-0.105,0.106l-0.318,0.388l-0.105,0.142l-0.175,0.281l-0.317,0.388    l0,0l-0.318,0.424l-0.212,0.211l-0.105,0.176l-0.318,0.389l-0.07,0.105l-0.246,0.281l-0.282,0.354l-0.07,0.035l-0.317,0.388    l-0.177,0.177l-0.176,0.211l-0.317,0.388l-0.035,0.035l-0.318,0.317l-0.246,0.316l-0.072,0.072l-0.704,0.739l-0.353,0.388l0,0    l-0.353,0.353l-0.811,0.846l-0.565,0.564l-0.035,0.035l-0.388,0.353l-0.176,0.176l-0.177,0.142l-0.351,0.353l-0.107,0.105    l-0.281,0.246l-0.317,0.283l-0.035,0.07c-0.635,0.564-1.271,1.128-1.939,1.657l-0.388,0.317l-0.142,0.141l-0.246,0.211    c-1.058,0.846-2.116,1.656-3.208,2.468l-0.423,0.282l-0.072,0.07l-1.162,0.811v77.941v0.035v0.106v0.07l0,0l-0.037,0.035v0.317    l0,0L147.195,296.627L147.195,296.627z M105.316,261.657l0.035-0.07l0.037-0.035l0.035-0.036l1.304-1.162l0.07-0.071l0.07-0.069    h0.035l0.072-0.07l0,0l0.07-0.037v-0.035l0.07-0.034l0.035-0.035l0.07-0.035h0.035l0.035-0.071h0.035l0.072-0.035l0.035-0.035    l0.141-0.07h0.035l0.035-0.035l0.142-0.07l0.07-0.035h0.035l0.035-0.035l0.248-0.106h0.035l0.21-0.07h0.07h0.037l0.351-0.106    h0.035h0.072l0,0c0.423-0.07,0.811-0.07,1.199-0.035h0.035l0.175,0.035l0,0l0.107,0.035l0,0h0.105l0.07,0.036h0.035l0.07,0.035    h0.035l0.07,0.035h0.037h0.07v0.035h0.07l0.035,0.035h0.07l0.318,0.142l0.07,0.035h0.035l0.035,0.035l0.177,0.105l0.07,0.035    l0.035,0.035l0.141,0.071l0.037,0.035l0.246,0.177l0.035,0.035l0.035,0.035l0.177,0.141l0.035,0.035l0.035,0.035l0.07,0.035    l0.07,0.105l25.805,25.1v-62.643l-0.177,0.07l-0.14,0.071h-0.035l-0.317,0.141v0.035l-0.141,0.071l-0.67,0.281l-0.177,0.071    l-0.035,0.035l-0.14,0.069l-0.67,0.283l-0.175,0.07l-0.035,0.035l-0.107,0.035c-6.168,2.68-12.761,4.441-19.669,5.217h-0.035    l-0.283,0.035h-0.105l-0.388,0.035h-0.107l0,0l-0.105,0.035h-0.105h-0.105l0,0l-0.212,0.035h-0.07h-0.035h-0.105l-0.107,0.036    h-0.07h-0.035h-0.105h-0.07l-0.388,0.035h-0.037h-0.105l-0.105,0.035h-0.07h-0.035h-0.107h-0.105h-0.035l-0.07,0.035h-0.105    h-0.107h-0.035h-0.07h-0.105h-0.105h-0.037l-0.07,0.035h-0.105h-0.105l0,0h-0.107h-0.105h-0.105l0,0l-0.105,0.035h-0.107h-0.105    l0,0h-0.105h-0.105h-0.072h-0.035h-0.105h-0.105h-0.07l-0.037,0.036h-0.105h-0.105h-0.07h-0.035h-0.107h-0.105h-0.035h-0.07    h-0.105h-0.107h-0.035h-0.07h-0.105h-0.105h-0.037h-0.07h-0.105l-0.105,0.035l0,0h-0.107h-0.105h-0.105l0,0h-0.105h-0.107h-0.105    l0,0h-0.105h-0.105h-0.107h-0.316h-0.282h-0.283h-0.035l-0.317-0.035h-0.281h-0.248h-0.07h-0.317l-0.318-0.036h-0.21h-0.072    h-0.316l-0.318-0.035h-0.177h-0.105l-0.318-0.035h-0.317h-0.141l-0.14-0.035h-0.318l-0.6-0.035l-0.316-0.035l-0.317-0.036    c-8.532-0.739-16.604-3.066-23.972-6.627v63.101L105.316,261.657z M127.031,142.33c-4.759-4.723-11.315-7.684-18.578-7.684    c-7.226,0-13.819,2.961-18.542,7.684c-4.759,4.76-7.719,11.316-7.719,18.578s2.96,13.818,7.719,18.578    c4.724,4.758,11.316,7.685,18.542,7.685c7.263,0,13.819-2.927,18.578-7.685c4.759-4.76,7.686-11.316,7.686-18.578    S131.79,147.09,127.031,142.33z M218.51,52.898c-2.397,0-4.336-1.939-4.336-4.336c0-2.397,1.939-4.336,4.336-4.336h39.199    c2.362,0,4.336,1.938,4.336,4.336c0,2.396-1.974,4.336-4.336,4.336H218.51z M209.52,130.98c-2.397,0-4.336-1.939-4.336-4.336    c0-2.397,1.939-4.336,4.336-4.336h116.752c2.397,0,4.336,1.938,4.336,4.336c0,2.396-1.938,4.336-4.336,4.336H209.52z     M209.52,156.996c-2.397,0-4.336-1.939-4.336-4.336c0-2.361,1.939-4.336,4.336-4.336h116.752c2.397,0,4.336,1.975,4.336,4.336    c0,2.396-1.938,4.336-4.336,4.336H209.52z M184.209,227.852c-2.397,0-4.336-1.939-4.336-4.336c0-2.362,1.939-4.301,4.336-4.301    h142.063c2.397,0,4.336,1.938,4.336,4.301c0,2.396-1.938,4.336-4.336,4.336H184.209z M184.209,255.101    c-2.397,0-4.336-1.938-4.336-4.336c0-2.362,1.939-4.301,4.336-4.301h142.063c2.397,0,4.336,1.938,4.336,4.301    c0,2.397-1.938,4.336-4.336,4.336H184.209z M184.209,282.35c-2.397,0-4.336-1.938-4.336-4.336c0-2.361,1.939-4.336,4.336-4.336    h142.063c2.397,0,4.336,1.975,4.336,4.336c0,2.397-1.938,4.336-4.336,4.336H184.209z M184.209,309.6    c-2.397,0-4.336-1.939-4.336-4.336c0-2.361,1.939-4.336,4.336-4.336h142.063c2.397,0,4.336,1.975,4.336,4.336    c0,2.396-1.938,4.336-4.336,4.336H184.209z M118.148,466.223c-2.397,0-4.336-1.939-4.336-4.336c0-2.397,1.939-4.336,4.336-4.336    h225.503c2.397,0,4.336,1.938,4.336,4.336c0,2.396-1.938,4.336-4.336,4.336H118.148z M233.174,485.999    c-2.397,0-4.336-1.939-4.336-4.337c0-2.361,1.939-4.336,4.336-4.336h184.471c2.397,0,4.336,1.975,4.336,4.336    c0,2.397-1.938,4.337-4.336,4.337H233.174z M436.539,485.999c-2.396,0-4.336-1.939-4.336-4.337c0-2.361,1.939-4.336,4.336-4.336    h23.056c2.397,0,4.336,1.975,4.336,4.336c0,2.397-1.938,4.337-4.336,4.337H436.539z M66.575,485.399    c-2.397,0-4.336-1.939-4.336-4.336c0-2.362,1.939-4.336,4.336-4.336H154c2.362,0,4.336,1.974,4.336,4.336    c0,2.396-1.974,4.336-4.336,4.336H66.575z M108.454,125.975c9.66,0,18.402,3.912,24.712,10.258    c6.31,6.31,10.223,15.053,10.223,24.676c0,9.659-3.913,18.401-10.223,24.711c-6.31,6.311-15.052,10.224-24.712,10.224    c-9.623,0-18.365-3.913-24.675-10.224c-6.31-6.31-10.223-15.052-10.223-24.711c0-9.623,3.913-18.366,10.223-24.676    C90.088,129.887,98.831,125.975,108.454,125.975z" style="fill-rule:evenodd;clip-rule:evenodd;"/>
</g>
</g>
<g id="Layer_1"/>
</svg>