<?xml version="1.0" ?><!-- Uploaded to: SVG Repo, www.svgrepo.com, Generator: SVG Repo Mixer Tools -->
<svg width="800px" height="800px" viewBox="0 0 32 32" id="OBJECT" xmlns="http://www.w3.org/2000/svg"><defs><style>.cls-1{fill:#b2b2b2;}</style></defs><title/><path d="M28,10H10a3,3,0,0,0-3,3V23a3,3,0,0,0,3,3H20.32l1.38,3.44a2.48,2.48,0,0,0,4.6,0L27.68,26H28a3,3,0,0,0,3-3V13A3,3,0,0,0,28,10Z"/><path class="cls-1" d="M22,1H4A3,3,0,0,0,1,4V14a3,3,0,0,0,3,3h.32L5.7,20.44a2.48,2.48,0,0,0,4.6,0L11.68,17H22a3,3,0,0,0,3-3V4A3,3,0,0,0,22,1Z"/><path d="M17.07,7.49,12.44,5.18a1.66,1.66,0,0,0-1.64.07A1.68,1.68,0,0,0,10,6.68v4.64a1.68,1.68,0,0,0,.8,1.43,1.66,1.66,0,0,0,.88.25,1.7,1.7,0,0,0,.76-.18l4.63-2.31a1.69,1.69,0,0,0,0-3Z"/><path class="cls-1" d="M16,21h-.5a1,1,0,0,1,0-2H16a1,1,0,0,1,0,2Z"/><path class="cls-1" d="M20,21h-.5a1,1,0,0,1,0-2H20a1,1,0,0,1,0,2Z"/><path class="cls-1" d="M24,21h-.5a1,1,0,0,1,0-2H24a1,1,0,0,1,0,2Z"/></svg>